<mxfile host="65bd71144e">
    <diagram id="vckkwV_smAUlrpQs1JhD" name="Page-1">
        <mxGraphModel dx="948" dy="545" grid="1" gridSize="10" guides="1" tooltips="1" connect="1" arrows="1" fold="1" page="1" pageScale="1" pageWidth="850" pageHeight="1100" math="0" shadow="0">
            <root>
                <mxCell id="0"/>
                <mxCell id="1" parent="0"/>
                <mxCell id="73" value="11: Wait(dDelay)" style="html=1;verticalAlign=bottom;endArrow=block;" edge="1" parent="1" source="3" target="51">
                    <mxGeometry width="80" relative="1" as="geometry">
                        <mxPoint x="210" y="610" as="sourcePoint"/>
                        <mxPoint x="340" y="610" as="targetPoint"/>
                        <Array as="points">
                            <mxPoint x="293" y="610"/>
                        </Array>
                    </mxGeometry>
                </mxCell>
                <mxCell id="66" value="&lt;b&gt;alt &lt;/b&gt;sensorError" style="shape=umlFrame;whiteSpace=wrap;html=1;width=100;height=20;" vertex="1" parent="1">
                    <mxGeometry x="40" y="340" width="730" height="80" as="geometry"/>
                </mxCell>
                <mxCell id="60" value="&lt;b&gt;alt &lt;/b&gt;configError" style="shape=umlFrame;whiteSpace=wrap;html=1;width=100;height=20;" vertex="1" parent="1">
                    <mxGeometry x="40" y="260" width="210" height="60" as="geometry"/>
                </mxCell>
                <mxCell id="3" value="Level Control" style="shape=umlLifeline;perimeter=lifelinePerimeter;whiteSpace=wrap;html=1;container=0;collapsible=0;recursiveResize=0;outlineConnect=0;" parent="1" vertex="1">
                    <mxGeometry x="160" y="80" width="95" height="560" as="geometry"/>
                </mxCell>
                <mxCell id="39" value="LevelSensor" style="shape=umlLifeline;perimeter=lifelinePerimeter;whiteSpace=wrap;html=1;container=0;collapsible=0;recursiveResize=0;outlineConnect=0;" parent="1" vertex="1">
                    <mxGeometry x="425" y="80" width="95" height="560" as="geometry"/>
                </mxCell>
                <mxCell id="40" value="User Interface" style="shape=umlLifeline;perimeter=lifelinePerimeter;whiteSpace=wrap;html=1;container=0;collapsible=0;recursiveResize=0;outlineConnect=0;" parent="1" vertex="1">
                    <mxGeometry x="30" y="80" width="95" height="560" as="geometry"/>
                </mxCell>
                <mxCell id="50" value="Configuration" style="shape=umlLifeline;perimeter=lifelinePerimeter;whiteSpace=wrap;html=1;container=0;collapsible=0;recursiveResize=0;outlineConnect=0;" vertex="1" parent="1">
                    <mxGeometry x="290" y="80" width="95" height="560" as="geometry"/>
                </mxCell>
                <mxCell id="51" value="Timer" style="shape=umlLifeline;perimeter=lifelinePerimeter;whiteSpace=wrap;html=1;container=0;collapsible=0;recursiveResize=0;outlineConnect=0;" vertex="1" parent="1">
                    <mxGeometry x="560" y="80" width="95" height="560" as="geometry"/>
                </mxCell>
                <mxCell id="52" value="Pump" style="shape=umlLifeline;perimeter=lifelinePerimeter;whiteSpace=wrap;html=1;container=0;collapsible=0;recursiveResize=0;outlineConnect=0;" vertex="1" parent="1">
                    <mxGeometry x="700" y="80" width="95" height="560" as="geometry"/>
                </mxCell>
                <mxCell id="62" value="5: dLevel: getLevel()" style="html=1;verticalAlign=bottom;endArrow=block;" edge="1" parent="1" source="3" target="39">
                    <mxGeometry width="80" relative="1" as="geometry">
                        <mxPoint x="280" y="350" as="sourcePoint"/>
                        <mxPoint x="360" y="350" as="targetPoint"/>
                        <Array as="points">
                            <mxPoint x="270" y="330"/>
                            <mxPoint x="310" y="330"/>
                            <mxPoint x="410" y="330"/>
                        </Array>
                    </mxGeometry>
                </mxCell>
                <mxCell id="65" value="7 [sensor exception]: stopPump()" style="html=1;verticalAlign=bottom;endArrow=block;" edge="1" parent="1">
                    <mxGeometry width="80" relative="1" as="geometry">
                        <mxPoint x="207.31034482758605" y="403" as="sourcePoint"/>
                        <mxPoint x="747" y="403" as="targetPoint"/>
                        <Array as="points">
                            <mxPoint x="520" y="403"/>
                        </Array>
                    </mxGeometry>
                </mxCell>
                <mxCell id="67" value="&lt;b&gt;loop &lt;/b&gt;LevelControllerLoop" style="shape=umlFrame;whiteSpace=wrap;html=1;width=170;height=15;" vertex="1" parent="1">
                    <mxGeometry x="10" y="240" width="770" height="390" as="geometry"/>
                </mxCell>
                <mxCell id="69" value="9 [dError &amp;lt; 0]: DecreaseInput()" style="html=1;verticalAlign=bottom;endArrow=block;" edge="1" parent="1">
                    <mxGeometry width="80" relative="1" as="geometry">
                        <mxPoint x="210.00034482758605" y="510" as="sourcePoint"/>
                        <mxPoint x="749.69" y="510" as="targetPoint"/>
                        <Array as="points">
                            <mxPoint x="552.69" y="510"/>
                        </Array>
                    </mxGeometry>
                </mxCell>
                <mxCell id="70" value="10 [dError &amp;gt; 0]: IncreaseInput()" style="html=1;verticalAlign=bottom;endArrow=block;" edge="1" parent="1">
                    <mxGeometry width="80" relative="1" as="geometry">
                        <mxPoint x="210.00034482758605" y="550" as="sourcePoint"/>
                        <mxPoint x="749.69" y="550" as="targetPoint"/>
                        <Array as="points">
                            <mxPoint x="562.69" y="550"/>
                        </Array>
                    </mxGeometry>
                </mxCell>
                <mxCell id="72" value="" style="endArrow=none;dashed=1;html=1;exitX=-0.004;exitY=0.557;exitDx=0;exitDy=0;exitPerimeter=0;entryX=1.004;entryY=0.55;entryDx=0;entryDy=0;entryPerimeter=0;" edge="1" parent="1" source="71" target="71">
                    <mxGeometry width="50" height="50" relative="1" as="geometry">
                        <mxPoint x="360" y="580" as="sourcePoint"/>
                        <mxPoint x="410" y="530" as="targetPoint"/>
                        <Array as="points">
                            <mxPoint x="640" y="530"/>
                            <mxPoint x="670" y="530"/>
                        </Array>
                    </mxGeometry>
                </mxCell>
                <mxCell id="74" value="" style="html=1;points=[];perimeter=orthogonalPerimeter;" vertex="1" parent="1">
                    <mxGeometry x="202.5" y="150" width="10" height="480" as="geometry"/>
                </mxCell>
                <mxCell id="58" value="4 [config exception]: setError(e)" style="html=1;verticalAlign=bottom;endArrow=block;" edge="1" parent="1">
                    <mxGeometry width="80" relative="1" as="geometry">
                        <mxPoint x="207" y="310" as="sourcePoint"/>
                        <mxPoint x="77" y="310" as="targetPoint"/>
                    </mxGeometry>
                </mxCell>
                <mxCell id="64" value="6 [sensor exception]: setError(e)" style="html=1;verticalAlign=bottom;endArrow=block;" edge="1" parent="1">
                    <mxGeometry width="80" relative="1" as="geometry">
                        <mxPoint x="207" y="385" as="sourcePoint"/>
                        <mxPoint x="77.42857142857144" y="385" as="targetPoint"/>
                    </mxGeometry>
                </mxCell>
                <mxCell id="71" value="&lt;b&gt;alt &lt;/b&gt;Decrease/Increase input" style="shape=umlFrame;whiteSpace=wrap;html=1;width=190;height=15;" vertex="1" parent="1">
                    <mxGeometry x="175" y="480" width="600" height="90" as="geometry"/>
                </mxCell>
                <mxCell id="68" value="8: dError := CalcError(dSetpoint, dLevel)" style="html=1;verticalAlign=bottom;endArrow=block;" edge="1" parent="1" source="3" target="3">
                    <mxGeometry x="0.3145" y="-110" width="80" relative="1" as="geometry">
                        <mxPoint x="240" y="460" as="sourcePoint"/>
                        <mxPoint x="320" y="460" as="targetPoint"/>
                        <Array as="points">
                            <mxPoint x="240" y="440"/>
                            <mxPoint x="240" y="470"/>
                        </Array>
                        <mxPoint x="110" y="110" as="offset"/>
                    </mxGeometry>
                </mxCell>
                <mxCell id="54" value="1: Run()" style="html=1;verticalAlign=bottom;endArrow=block;" edge="1" parent="1" source="40" target="3">
                    <mxGeometry width="80" relative="1" as="geometry">
                        <mxPoint x="80" y="150" as="sourcePoint"/>
                        <mxPoint x="160" y="150" as="targetPoint"/>
                        <Array as="points">
                            <mxPoint x="170" y="160"/>
                        </Array>
                    </mxGeometry>
                </mxCell>
                <mxCell id="75" value="" style="html=1;points=[];perimeter=orthogonalPerimeter;" vertex="1" parent="1">
                    <mxGeometry x="332.5" y="180" width="10" height="30" as="geometry"/>
                </mxCell>
                <mxCell id="56" value="2: dSetpoint := getSetpoint()" style="html=1;verticalAlign=bottom;endArrow=block;" edge="1" parent="1" source="3" target="50">
                    <mxGeometry width="80" relative="1" as="geometry">
                        <mxPoint x="250" y="210" as="sourcePoint"/>
                        <mxPoint x="330" y="210" as="targetPoint"/>
                        <Array as="points">
                            <mxPoint x="300" y="190"/>
                        </Array>
                    </mxGeometry>
                </mxCell>
                <mxCell id="76" value="" style="html=1;points=[];perimeter=orthogonalPerimeter;" vertex="1" parent="1">
                    <mxGeometry x="332.5" y="220" width="10" height="30" as="geometry"/>
                </mxCell>
                <mxCell id="57" value="3: dDelay :getDelay()" style="html=1;verticalAlign=bottom;endArrow=block;" edge="1" parent="1">
                    <mxGeometry width="80" relative="1" as="geometry">
                        <mxPoint x="207" y="231" as="sourcePoint"/>
                        <mxPoint x="337" y="231" as="targetPoint"/>
                        <Array as="points">
                            <mxPoint x="290" y="231"/>
                        </Array>
                    </mxGeometry>
                </mxCell>
            </root>
        </mxGraphModel>
    </diagram>
</mxfile>